<svg xmlns="http://www.w3.org/2000/svg" viewBox="0 0 1440 980" font-family="Inter,-apple-system,BlinkMacSystemFont,Segoe UI,Roboto,Helvetica,Arial,sans-serif">
  <defs>
    <style>
      .bg{fill:#fff}.bar{fill:#fff;stroke:#e3e5e9}.card{fill:#fff;stroke:#e3e5e9}.raised{fill:#f6f7f9;stroke:#e3e5e9}.text{fill:#15181e}.muted{fill:#5a6472}.soft{fill:#9aa3af}.accent{fill:#e1590f}.orange{fill:#ff6a1a}.green{fill:#1f9d6b}.gold{fill:#e0921a}.red{fill:#e0453c}.line{stroke:#e3e5e9}.route{fill:none;stroke:#ff6a1a;stroke-width:5;stroke-linecap:round;stroke-linejoin:round}.route2{fill:none;stroke:#1f9d6b;stroke-width:5;stroke-linecap:round;stroke-linejoin:round}.grid{stroke:#e3e5e9;stroke-width:1}.tiny{font-size:12px}.label{font-size:13px;font-weight:700;letter-spacing:.08em;text-transform:uppercase}.h1{font-family:Space Grotesk,Inter,sans-serif;font-size:54px;font-weight:700}.h2{font-family:Space Grotesk,Inter,sans-serif;font-size:22px;font-weight:700}.h3{font-family:Space Grotesk,Inter,sans-serif;font-size:17px;font-weight:700}.value{font-family:Space Grotesk,Inter,sans-serif;font-weight:700}.mono{font-family:SFMono-Regular,Consolas,Liberation Mono,monospace}
    </style>
    <g id="hammer" fill="none" stroke="#1a1206" stroke-width="2" stroke-linecap="round" stroke-linejoin="round">
      <path d="M11.414 10 4.031 17.418a2.091 2.091 0 0 0 0 2.967 2.11 2.11 0 0 0 2.976 0L14.414 13"/>
      <path d="m18.121 15.293 2.586-2.586a1 1 0 0 0 0-1.414l-7.586-7.586a1 1 0 0 0-1.414 0L9.121 6.293a1 1 0 0 0 0 1.414l7.586 7.586a1 1 0 0 0 1.414 0Z"/>
    </g>
  </defs>

  <rect width="1440" height="980" class="bg"/>
  <rect x="0.5" y="0.5" width="1439" height="979" class="bar"/>

  <line x1="0" y1="72" x2="1440" y2="72" class="line"/>
  <rect x="42" y="20" width="36" height="36" rx="8" class="orange"/>
  <use href="#hammer" transform="translate(48 26) scale(.9)"/>
  <text x="92" y="43" class="text" font-size="20" font-weight="800">FFM<tspan fill="#e1590f">Forge</tspan></text>
  <text x="198" y="43" class="muted" font-size="13" font-weight="600">editor</text>
  <rect x="612" y="18" width="216" height="38" rx="19" class="raised"/>
  <rect x="618" y="23" width="96" height="28" rx="14" class="orange"/>
  <text x="666" y="42" text-anchor="middle" class="text" font-size="13" font-weight="700">Merge</text>
  <text x="770" y="42" text-anchor="middle" class="muted" font-size="13" font-weight="700">Editor</text>
  <rect x="1262" y="18" width="118" height="38" rx="19" class="card"/>
  <circle cx="1281" cy="37" r="6" class="orange"/>
  <text x="1296" y="42" class="text" font-size="14" font-weight="700">Dark mode</text>

  <text x="96" y="134" class="label accent">Garmin FIT editor workspace</text>
  <text x="96" y="196" class="h1 text">Inspect and repair a FIT file.</text>
  <rect x="1018" y="116" width="106" height="30" rx="15" fill="#e8f7f0" stroke="#9ed9bf"/>
  <text x="1071" y="136" text-anchor="middle" fill="#14835a" font-size="12" font-weight="800">file loaded</text>
  <rect x="1134" y="116" width="112" height="30" rx="15" fill="#fff5e6" stroke="#f0c777"/>
  <text x="1190" y="136" text-anchor="middle" fill="#b16907" font-size="12" font-weight="800">5 warnings</text>
  <rect x="1256" y="116" width="124" height="30" rx="15" fill="#f6f7f9" stroke="#e3e5e9"/>
  <text x="1318" y="136" text-anchor="middle" class="muted" font-size="12" font-weight="800">export pending</text>

  <g transform="translate(96 238)">
    <rect width="318" height="650" rx="14" class="card"/>
    <text x="22" y="36" class="label accent">Current file</text>
    <text x="22" y="66" class="h2 text">Metric_100.fit</text>
    <rect x="22" y="88" width="274" height="78" rx="10" class="raised"/>
    <text x="42" y="118" class="text" font-size="16" font-weight="800">11537 records</text>
    <text x="42" y="142" class="muted" font-size="13">101.58 km / 63.12 mi · cycling</text>
    <circle cx="264" cy="124" r="10" class="green"/>

    <text x="22" y="210" class="label accent">FIT anatomy</text>
    <g font-size="15" font-weight="700">
      <rect x="18" y="228" width="282" height="34" rx="8" fill="#fff"/>
      <text x="38" y="250" class="muted">file_id</text><text x="278" y="250" text-anchor="end" class="soft">1</text>
      <rect x="18" y="267" width="282" height="34" rx="8" fill="#fff"/>
      <text x="38" y="289" class="muted">device_info</text><text x="278" y="289" text-anchor="end" class="soft">12</text>
      <rect x="18" y="306" width="282" height="34" rx="8" fill="#fff9f1" stroke="#f0c777"/>
      <circle cx="32" cy="323" r="5" class="gold"/><text x="48" y="328" class="text">event</text><text x="278" y="328" text-anchor="end" class="gold">9</text>
      <rect x="18" y="345" width="282" height="38" rx="8" fill="#fff1e8" stroke="#ff6a1a"/>
      <circle cx="32" cy="364" r="5" class="orange"/><text x="48" y="369" class="text">record</text><text x="278" y="369" text-anchor="end" class="accent">11537</text>
      <rect x="18" y="388" width="282" height="34" rx="8" fill="#fff"/>
      <text x="38" y="410" class="muted">lap</text><text x="278" y="410" text-anchor="end" class="soft">13</text>
      <rect x="18" y="427" width="282" height="34" rx="8" fill="#fff"/>
      <text x="38" y="449" class="muted">session</text><text x="278" y="449" text-anchor="end" class="soft">1</text>
      <rect x="18" y="466" width="282" height="34" rx="8" fill="#fff"/>
      <text x="38" y="488" class="muted">activity</text><text x="278" y="488" text-anchor="end" class="soft">1</text>
    </g>

    <line x1="22" y1="532" x2="296" y2="532" class="line"/>
    <text x="22" y="566" class="label accent">Selected message</text>
    <text x="22" y="595" class="h3 text">record</text>
    <text x="22" y="622" class="muted" font-size="14">8 visible fields · 5 diagnostics</text>
  </g>

  <g transform="translate(434 238)">
    <rect width="612" height="650" rx="14" class="card"/>
    <text x="22" y="36" class="label accent">Record table</text>
    <text x="22" y="66" class="h2 text">Telemetry rows</text>
    <rect x="414" y="24" width="174" height="34" rx="17" class="raised"/>
    <text x="501" y="46" text-anchor="middle" class="muted" font-size="13" font-weight="700">record 4218 of 11537</text>

    <rect x="22" y="88" width="568" height="148" rx="10" fill="#eef2f4" stroke="#e3e5e9"/>
    <path d="M36 190 C102 136 166 168 216 124 S300 92 356 118 S450 180 574 120" class="route"/>
    <path d="M36 190 C102 136 166 168 216 124" class="route2"/>
    <circle cx="36" cy="190" r="7" class="green"/>
    <circle cx="574" cy="120" r="7" class="red"/>
    <text x="458" y="222" class="tiny muted">OpenFreeMap vector tiles</text>
    <circle cx="556" cy="220" r="6" class="text"/>
    <text x="556" y="224" text-anchor="middle" fill="#fff" font-size="9" font-weight="800">i</text>

    <rect x="22" y="258" width="568" height="356" rx="10" class="raised"/>
    <g class="mono" font-size="12">
      <rect x="22" y="258" width="568" height="34" rx="10" fill="#fff"/>
      <text x="38" y="280" class="muted">timestamp</text><text x="150" y="280" class="muted">position</text><text x="286" y="280" class="muted">hr</text><text x="334" y="280" class="muted">power</text><text x="402" y="280" class="muted">speed</text><text x="476" y="280" class="muted">alt</text><text x="530" y="280" class="muted">temp</text>
      <g fill="#15181e">
        <text x="38" y="316">09:58:51</text><text x="150" y="316">42.5083,-71.4741</text><text x="286" y="316">82</text><text x="334" y="316">347</text><text x="402" y="316">16.9</text><text x="476" y="316">79</text><text x="530" y="316">22</text>
        <text x="38" y="350">09:58:52</text><text x="150" y="350">42.5081,-71.4744</text><text x="286" y="350">84</text><text x="334" y="350">351</text><text x="402" y="350">17.3</text><text x="476" y="350">77</text><text x="530" y="350">23</text>
        <rect x="32" y="366" width="546" height="28" rx="7" fill="#fff9f1" stroke="#f0c777"/>
        <text x="38" y="385">10:14:08</text><text x="150" y="385">42.5128,-71.4410</text><text x="286" y="385">--</text><text x="334" y="385">0</text><text x="402" y="385">31.9</text><text x="476" y="385">88</text><text x="530" y="385">24</text>
        <text x="38" y="422">10:14:09</text><text x="150" y="422">42.5130,-71.4407</text><text x="286" y="422">148</text><text x="334" y="422">188</text><text x="402" y="422">32.1</text><text x="476" y="422">88</text><text x="530" y="422">24</text>
        <text x="38" y="456">10:14:10</text><text x="150" y="456">42.5132,-71.4402</text><text x="286" y="456">149</text><text x="334" y="456">190</text><text x="402" y="456">32.2</text><text x="476" y="456">89</text><text x="530" y="456">24</text>
        <rect x="32" y="472" width="546" height="28" rx="7" fill="#fff1e8" stroke="#ffb083"/>
        <text x="38" y="491">10:22:34</text><text x="150" y="491">42.5401,-71.4040</text><text x="286" y="491">151</text><text x="334" y="491">1134</text><text x="402" y="491">33.8</text><text x="476" y="491">94</text><text x="530" y="491">25</text>
        <text x="38" y="528">10:22:35</text><text x="150" y="528">42.5404,-71.4037</text><text x="286" y="528">151</text><text x="334" y="528">214</text><text x="402" y="528">33.9</text><text x="476" y="528">94</text><text x="530" y="528">25</text>
        <text x="38" y="562">10:22:36</text><text x="150" y="562">42.5407,-71.4034</text><text x="286" y="562">152</text><text x="334" y="562">217</text><text x="402" y="562">34.2</text><text x="476" y="562">95</text><text x="530" y="562">25</text>
      </g>
    </g>
  </g>

  <g transform="translate(1066 238)">
    <rect width="278" height="650" rx="14" class="card"/>
    <text x="22" y="36" class="label accent">Diagnostics</text>
    <text x="22" y="66" class="h2 text">Issues found</text>
    <g>
      <rect x="22" y="92" width="234" height="62" rx="10" fill="#fff9f1" stroke="#f0c777"/>
      <circle cx="42" cy="122" r="6" class="gold"/><text x="58" y="116" class="text" font-size="15" font-weight="800">Heart rate dropout</text><text x="58" y="136" class="muted" font-size="12">1 suspicious range</text>
      <rect x="22" y="166" width="234" height="62" rx="10" fill="#fff1e8" stroke="#ffb083"/>
      <circle cx="42" cy="196" r="6" class="orange"/><text x="58" y="190" class="text" font-size="15" font-weight="800">Power spike</text><text x="58" y="210" class="muted" font-size="12">1134 W single-record jump</text>
      <rect x="22" y="240" width="234" height="62" rx="10" class="raised"/>
      <circle cx="42" cy="270" r="6" class="green"/><text x="58" y="264" class="text" font-size="15" font-weight="800">GPS continuity</text><text x="58" y="284" class="muted" font-size="12">route is upload-safe</text>
      <rect x="22" y="314" width="234" height="62" rx="10" class="raised"/>
      <circle cx="42" cy="344" r="6" class="green"/><text x="58" y="338" class="text" font-size="15" font-weight="800">CRC / layout</text><text x="58" y="358" class="muted" font-size="12">binary structure valid</text>
    </g>
    <line x1="22" y1="406" x2="256" y2="406" class="line"/>
    <text x="22" y="442" class="label accent">Selected issue</text>
    <text x="22" y="472" class="h3 text">Power spike at 10:22:34</text>
    <text x="22" y="498" class="muted" font-size="13">Power jumps from 190 W to 1134 W for one record, then returns to normal.</text>
    <rect x="22" y="534" width="234" height="38" rx="8" class="orange"/>
    <text x="139" y="558" text-anchor="middle" class="text" font-size="14" font-weight="800">Interpolate value</text>
    <rect x="22" y="584" width="112" height="36" rx="8" class="card"/>
    <text x="78" y="607" text-anchor="middle" class="text" font-size="13" font-weight="700">Ignore</text>
    <rect x="144" y="584" width="112" height="36" rx="8" class="card"/>
    <text x="200" y="607" text-anchor="middle" class="text" font-size="13" font-weight="700">Delete row</text>
  </g>
</svg>
