<svg xmlns="http://www.w3.org/2000/svg" viewBox="0 0 680 240" font-family="-apple-system,Segoe UI,Roboto,Helvetica,Arial,sans-serif">
  <defs>
    <g id="hmr" fill="none" stroke="#1A1206" stroke-width="2" stroke-linecap="round" stroke-linejoin="round">
      <path d="M11.414 10l-7.383 7.418a2.091 2.091 0 0 0 0 2.967a2.11 2.11 0 0 0 2.976 0l7.407 -7.385"/>
      <path d="M18.121 15.293l2.586 -2.586a1 1 0 0 0 0 -1.414l-7.586 -7.586a1 1 0 0 0 -1.414 0l-2.586 2.586a1 1 0 0 0 0 1.414l7.586 7.586a1 1 0 0 0 1.414 0"/>
    </g>
  </defs>

  <rect x="0.5" y="0.5" width="333" height="149" rx="14" fill="#FFFFFF" stroke="#E3E5E9"/>
  <rect x="60" y="49" width="52" height="52" rx="13" fill="#FF6A1A"/>
  <use href="#hmr" transform="translate(71,60) scale(1.25)"/>
  <text x="128" y="86" font-size="28" font-weight="700" fill="#15181E">FFM<tspan fill="#E1590F">Forge</tspan></text>
  <text x="128" y="106" font-size="12" fill="#9AA3AF">light · default</text>

  <rect x="346.5" y="0.5" width="333" height="149" rx="14" fill="#0E1216" stroke="#2A323D"/>
  <rect x="406" y="49" width="52" height="52" rx="13" fill="#FF6A1A"/>
  <use href="#hmr" transform="translate(417,60) scale(1.25)"/>
  <text x="474" y="86" font-size="28" font-weight="700" fill="#F2F4F7">FFM<tspan fill="#FF6A1A">Forge</tspan></text>
  <text x="474" y="106" font-size="12" fill="#6B7480">dark</text>

  <rect x="0.5" y="160.5" width="679" height="79" rx="14" fill="#FFFFFF" stroke="#E3E5E9"/>
  <text x="24" y="204" font-size="13" fill="#5A6472">App icon / favicon</text>
  <rect x="210" y="185" width="20" height="20" rx="5" fill="#FF6A1A"/>
  <use href="#hmr" transform="translate(214,189) scale(0.5)"/>
  <rect x="246" y="181" width="28" height="28" rx="7" fill="#FF6A1A"/>
  <use href="#hmr" transform="translate(251.5,186.5) scale(0.708)"/>
  <rect x="290" y="175" width="40" height="40" rx="10" fill="#FF6A1A"/>
  <use href="#hmr" transform="translate(298,183) scale(1)"/>
  <rect x="346" y="169" width="52" height="52" rx="13" fill="#FF6A1A"/>
  <use href="#hmr" transform="translate(356.5,179.5) scale(1.29)"/>
</svg>
