<svg xmlns="http://www.w3.org/2000/svg" viewBox="0 0 680 560" font-family="-apple-system,Segoe UI,Roboto,Helvetica,Arial,sans-serif">
  <defs>
    <g id="hmr" fill="none" stroke="#1A1206" stroke-width="2" stroke-linecap="round" stroke-linejoin="round">
      <path d="M11.414 10l-7.383 7.418a2.091 2.091 0 0 0 0 2.967a2.11 2.11 0 0 0 2.976 0l7.407 -7.385"/>
      <path d="M18.121 15.293l2.586 -2.586a1 1 0 0 0 0 -1.414l-7.586 -7.586a1 1 0 0 0 -1.414 0l-2.586 2.586a1 1 0 0 0 0 1.414l7.586 7.586a1 1 0 0 0 1.414 0"/>
    </g>
  </defs>

  <rect x="0.5" y="0.5" width="679" height="559" rx="14" fill="#FFFFFF" stroke="#E3E5E9"/>

  <line x1="0" y1="48" x2="680" y2="48" stroke="#E3E5E9"/>
  <rect x="16" y="11" width="26" height="26" rx="7" fill="#FF6A1A"/>
  <use href="#hmr" transform="translate(21,16) scale(0.667)"/>
  <text x="50" y="30" font-size="16" font-weight="700" fill="#15181E">FFM<tspan fill="#E1590F">Forge</tspan><tspan fill="#9AA3AF" font-weight="400">  · merge</tspan></text>
  <rect x="586" y="13" width="78" height="22" rx="11" fill="#F6F7F9" stroke="#E3E5E9"/>
  <circle cx="601" cy="24" r="5" fill="none" stroke="#5A6472" stroke-width="1.4"/>
  <text x="612" y="28" font-size="12" fill="#5A6472">Dark</text>

  <rect x="24" y="60" width="632" height="120" rx="10" fill="#F6F7F9" stroke="#E3E5E9"/>
  <path d="M48,150 C120,120 140,86 230,98 S360,150 420,124" fill="none" stroke="#FF6A1A" stroke-width="3" stroke-linecap="round"/>
  <path d="M420,124 C460,112 500,98 536,106" fill="none" stroke="#E0921A" stroke-width="3" stroke-dasharray="2 7" stroke-linecap="round"/>
  <path d="M536,106 C584,116 612,150 632,132" fill="none" stroke="#FF6A1A" stroke-width="3" stroke-linecap="round"/>
  <circle cx="48" cy="150" r="6" fill="#1F9D6B"/>
  <circle cx="632" cy="132" r="6" fill="#E0453C"/>
  <circle cx="478" cy="108" r="7" fill="#F6F7F9" stroke="#E0921A" stroke-width="3"/>
  <g font-size="12" fill="#5A6472">
    <circle cx="44" cy="168" r="4.5" fill="#1F9D6B"/><text x="54" y="172">start</text>
    <circle cx="120" cy="168" r="4.5" fill="none" stroke="#E0921A" stroke-width="2"/><text x="130" y="172">gap (paused)</text>
    <circle cx="226" cy="168" r="4.5" fill="#E0453C"/><text x="236" y="172">finish</text>
  </g>

  <rect x="24" y="196" width="261" height="26" rx="8" fill="#FDEAD9"/>
  <text x="154" y="213" text-anchor="middle" font-size="12" font-weight="500" fill="#C24A0C">segment 1 · 46m</text>
  <rect x="289" y="196" width="79" height="26" rx="8" fill="#FBEFD6"/>
  <text x="328" y="213" text-anchor="middle" font-size="12" font-weight="500" fill="#9A6206">gap 14m</text>
  <rect x="372" y="196" width="284" height="26" rx="8" fill="#FDEAD9"/>
  <text x="514" y="213" text-anchor="middle" font-size="12" font-weight="500" fill="#C24A0C">segment 2 · 50m</text>

  <text x="24" y="252" font-size="13" fill="#5A6472">Order &amp; segments</text>
  <rect x="24" y="262" width="306" height="40" rx="9" fill="#FFFFFF" stroke="#E3E5E9"/>
  <text x="40" y="280" font-size="14" font-weight="500" fill="#15181E">part 1</text>
  <text x="40" y="295" font-size="12" fill="#9AA3AF">08:00 – 08:46 · 14.85 km</text>
  <rect x="24" y="308" width="306" height="40" rx="9" fill="#FFFFFF" stroke="#E3E5E9"/>
  <text x="40" y="326" font-size="14" font-weight="500" fill="#15181E">part 2</text>
  <text x="40" y="341" font-size="12" fill="#9AA3AF">09:00 – 09:50 · 17.36 km</text>

  <text x="24" y="376" font-size="13" fill="#5A6472">Gap handling</text>
  <rect x="24" y="384" width="306" height="46" rx="9" fill="#FFFFFF" stroke="#FF6A1A"/>
  <circle cx="42" cy="400" r="6" fill="none" stroke="#FF6A1A" stroke-width="1.6"/><circle cx="42" cy="400" r="3" fill="#FF6A1A"/>
  <text x="58" y="401" font-size="14" font-weight="500" fill="#15181E">Preserve as pause</text>
  <text x="58" y="417" font-size="12" fill="#9AA3AF">elapsed includes the gap, moving time doesn't</text>
  <rect x="24" y="436" width="306" height="46" rx="9" fill="#FFFFFF" stroke="#E3E5E9"/>
  <circle cx="42" cy="452" r="6" fill="none" stroke="#9AA3AF" stroke-width="1.6"/>
  <text x="58" y="453" font-size="14" font-weight="500" fill="#15181E">Close the gap</text>
  <text x="58" y="469" font-size="12" fill="#9AA3AF">shift segment 2 to continue seamlessly</text>

  <text x="24" y="506" font-size="13" fill="#5A6472">Laps</text>
  <rect x="24" y="514" width="306" height="34" rx="8" fill="#FFFFFF" stroke="#E3E5E9"/>
  <text x="38" y="535" font-size="13" fill="#15181E">One lap per segment</text>
  <path d="M308,529 l5,5 l5,-5" fill="none" stroke="#5A6472" stroke-width="1.5"/>

  <text x="350" y="252" font-size="13" fill="#5A6472">Merge report</text>
  <rect x="350" y="262" width="306" height="160" rx="9" fill="#FFFFFF" stroke="#E3E5E9"/>
  <g font-size="13">
    <text x="366" y="288" fill="#5A6472">Segments</text><text x="640" y="288" text-anchor="end" fill="#15181E">2 → 1 activity</text>
    <line x1="366" y1="298" x2="640" y2="298" stroke="#E3E5E9"/>
    <text x="366" y="319" fill="#5A6472">Gap preserved</text><text x="640" y="319" text-anchor="end" fill="#E0921A">13m 47s</text>
    <line x1="366" y1="329" x2="640" y2="329" stroke="#E3E5E9"/>
    <text x="366" y="350" fill="#5A6472">Total distance</text><text x="640" y="350" text-anchor="end" fill="#15181E">32.21 km / 20.01 mi</text>
    <line x1="366" y1="360" x2="640" y2="360" stroke="#E3E5E9"/>
    <text x="366" y="381" fill="#5A6472">Elapsed / moving</text><text x="640" y="381" text-anchor="end" fill="#15181E">1:46:31 / 1:33:08</text>
    <line x1="366" y1="391" x2="640" y2="391" stroke="#E3E5E9"/>
    <text x="366" y="412" fill="#5A6472">Records kept</text><text x="640" y="412" text-anchor="end" fill="#1F9D6B">5,073 (lossless)</text>
  </g>

  <rect x="350" y="438" width="96" height="40" rx="8" fill="#FFFFFF" stroke="#E3E5E9"/>
  <text x="398" y="463" text-anchor="middle" font-size="13" font-weight="500" fill="#15181E">Preview</text>
  <rect x="454" y="438" width="202" height="40" rx="8" fill="#FF6A1A"/>
  <text x="555" y="463" text-anchor="middle" font-size="13" font-weight="500" fill="#1A1206">Merge &amp; download .fit</text>
</svg>
