<svg xmlns="http://www.w3.org/2000/svg" viewBox="0 0 680 405" font-family="-apple-system,Segoe UI,Roboto,Helvetica,Arial,sans-serif">
  <defs>
    <g id="hmr" fill="none" stroke="#1A1206" stroke-width="2" stroke-linecap="round" stroke-linejoin="round">
      <path d="M11.414 10l-7.383 7.418a2.091 2.091 0 0 0 0 2.967a2.11 2.11 0 0 0 2.976 0l7.407 -7.385"/>
      <path d="M18.121 15.293l2.586 -2.586a1 1 0 0 0 0 -1.414l-7.586 -7.586a1 1 0 0 0 -1.414 0l-2.586 2.586a1 1 0 0 0 0 1.414l7.586 7.586a1 1 0 0 0 1.414 0"/>
    </g>
  </defs>

  <rect x="0.5" y="0.5" width="679" height="404" rx="14" fill="#FFFFFF" stroke="#E3E5E9"/>

  <line x1="0" y1="48" x2="680" y2="48" stroke="#E3E5E9"/>
  <rect x="16" y="11" width="26" height="26" rx="7" fill="#FF6A1A"/>
  <use href="#hmr" transform="translate(21,16) scale(0.667)"/>
  <text x="50" y="30" font-size="16" font-weight="700" fill="#15181E">fit<tspan fill="#E1590F">forge</tspan></text>
  <text x="664" y="30" text-anchor="end" font-size="13" fill="#5A6472">Join     Activities</text>

  <text x="24" y="80" font-size="20" font-weight="700" fill="#15181E">Join your ride recordings</text>
  <text x="24" y="101" font-size="13" fill="#5A6472">Combine multiple .fit files from one ride into a single continuous activity.</text>

  <rect x="24" y="114" width="632" height="86" rx="12" fill="#F6F7F9" stroke="#E3E5E9" stroke-dasharray="4 4"/>
  <g transform="translate(332,132)" stroke="#5A6472" stroke-width="1.6" fill="none" stroke-linecap="round" stroke-linejoin="round"><path d="M8,2 V14 M3,7 L8,2 L13,7"/><path d="M0,17 H16"/></g>
  <text x="340" y="172" text-anchor="middle" font-size="14" font-weight="500" fill="#15181E">Drag .fit files here</text>
  <text x="340" y="190" text-anchor="middle" font-size="12" fill="#9AA3AF">or click to browse — add two or more segments</text>

  <text x="24" y="228" font-size="13" fill="#5A6472">Added segments</text>

  <rect x="24" y="238" width="632" height="44" rx="9" fill="#FFFFFF" stroke="#E3E5E9"/>
  <g transform="translate(44,260)"><circle r="6" fill="none" stroke="#5A6472" stroke-width="1.5"/><circle r="1.6" fill="#5A6472"/></g>
  <text x="62" y="256" font-size="14" font-weight="500" fill="#15181E">morning_ride_part1.fit</text>
  <text x="62" y="272" font-size="12" fill="#9AA3AF">08:00 – 08:46 · 14.85 km · 2,536 points</text>
  <text x="640" y="264" text-anchor="end" font-size="12" fill="#157A52">✓ valid</text>

  <rect x="24" y="290" width="632" height="44" rx="9" fill="#FFFFFF" stroke="#E3E5E9"/>
  <g transform="translate(44,312)"><circle r="6" fill="none" stroke="#5A6472" stroke-width="1.5"/><circle r="1.6" fill="#5A6472"/></g>
  <text x="62" y="308" font-size="14" font-weight="500" fill="#15181E">morning_ride_part2.fit</text>
  <text x="62" y="324" font-size="12" fill="#9AA3AF">09:00 – 09:50 · 17.36 km · 2,537 points</text>
  <text x="640" y="316" text-anchor="end" font-size="12" fill="#157A52">✓ valid</text>

  <text x="24" y="369" font-size="13" fill="#9A6206">13m 47s gap detected between segments</text>
  <rect x="472" y="350" width="184" height="38" rx="8" fill="#FF6A1A"/>
  <text x="564" y="374" text-anchor="middle" font-size="13" font-weight="500" fill="#1A1206">Continue to merge   →</text>
</svg>
